<svg version="1.1" id="Layer_1" xmlns="https://www.w3.org/2000/svg" xmlns:xlink="https://www.w3.org/1999/xlink" x="0px" y="0px"
	 width="100%" viewBox="0 0 512 512" enable-background="new 0 0 512 512" xml:space="preserve">
<path fill="#FFFFFF" opacity="1.000000" stroke="none" 
	d="
M254.000000,513.000000 
	C169.353867,513.000000 85.207733,513.000000 1.030800,513.000000 
	C1.030800,342.395508 1.030800,171.791016 1.030800,1.093254 
	C171.562820,1.093254 342.125702,1.093254 512.844299,1.093254 
	C512.844299,171.666550 512.844299,342.333252 512.844299,513.000000 
	C426.790985,513.000000 340.645477,513.000000 254.000000,513.000000 
M374.995331,299.384186 
	C376.081726,287.312225 377.690033,275.258911 378.122864,263.163574 
	C378.668518,247.916962 378.254486,232.636032 378.254486,217.340210 
	C299.567108,217.340210 221.872269,217.340210 143.841934,217.340210 
	C143.841934,239.009323 144.044342,260.318237 143.773468,281.621124 
	C143.580704,296.779572 148.430252,310.121796 157.386902,321.994110 
	C162.181366,328.349335 167.362823,334.540192 173.115845,340.022064 
	C195.391861,361.248138 222.361954,374.902771 250.088058,387.442352 
	C257.445038,390.769623 263.421906,390.587646 270.648041,387.350708 
	C296.712708,375.675110 322.122711,363.007385 343.885742,344.125061 
	C357.807709,332.045837 369.105530,318.064026 374.995331,299.384186 
M291.500000,209.947235 
	C320.078735,209.947235 348.657440,209.947235 376.872681,209.947235 
	C376.872681,200.837524 376.978333,192.385971 376.846008,183.938141 
	C376.679718,173.320679 374.120758,170.476776 363.508942,169.139923 
	C329.743866,164.886261 297.379089,155.770691 266.581360,141.254608 
	C262.137085,139.159851 258.135986,139.369781 253.712463,141.382187 
	C246.002716,144.889572 238.216766,148.307800 230.240234,151.135742 
	C206.147842,159.677155 181.150558,164.402893 155.910355,167.914444 
	C150.561279,168.658615 145.812134,170.988663 145.450226,176.252243 
	C144.691956,187.280487 145.220245,198.397186 145.220245,209.947205 
	C193.314423,209.947205 241.907211,209.947205 291.500000,209.947235 
z"/>
<path fill="#024E95" opacity="1.000000" stroke="none" 
	d="
M374.893951,299.775543 
	C369.105530,318.064026 357.807709,332.045837 343.885742,344.125061 
	C322.122711,363.007385 296.712708,375.675110 270.648041,387.350708 
	C263.421906,390.587646 257.445038,390.769623 250.088058,387.442352 
	C222.361954,374.902771 195.391861,361.248138 173.115845,340.022064 
	C167.362823,334.540192 162.181366,328.349335 157.386902,321.994110 
	C148.430252,310.121796 143.580704,296.779572 143.773468,281.621124 
	C144.044342,260.318237 143.841934,239.009323 143.841934,217.340210 
	C221.872269,217.340210 299.567108,217.340210 378.254486,217.340210 
	C378.254486,232.636032 378.668518,247.916962 378.122864,263.163574 
	C377.690033,275.258911 376.081726,287.312225 374.893951,299.775543 
M283.574921,314.070404 
	C281.631256,312.362152 279.687592,310.653900 277.651459,308.864410 
	C275.920044,310.695709 274.602509,312.480530 272.916840,313.792267 
	C269.182739,316.698090 269.760376,319.242432 272.760925,322.370758 
	C280.958435,330.917419 291.051270,332.662720 302.140503,330.934662 
	C317.065643,328.608826 326.653015,313.863556 323.390900,298.434784 
	C320.308380,283.855560 306.629211,275.667603 291.834503,279.504486 
	C290.655396,279.810242 289.394409,279.800110 288.219635,279.931396 
	C289.332397,274.470703 290.348938,269.482330 291.467102,263.995239 
	C300.674866,263.995239 309.748016,263.995239 318.781708,263.995239 
	C318.781708,259.035004 318.781708,254.637436 318.781708,249.925339 
	C307.646820,249.925339 296.841309,249.925323 286.035797,249.925369 
	C285.036072,249.925385 283.785858,249.548065 283.091248,250.008575 
	C281.830902,250.844193 280.242157,252.027939 279.944366,253.330200 
	C278.424561,259.977173 277.247406,266.703644 276.000885,273.411713 
	C274.499878,281.489502 273.049774,289.576721 271.569519,297.704224 
	C281.262939,298.651886 281.262939,298.651886 288.637024,293.908020 
	C293.414032,290.834900 299.900452,291.020325 304.064667,294.349030 
	C308.301605,297.735901 309.882599,304.071564 307.929291,309.836090 
	C306.302856,314.635925 301.545532,318.289185 295.937439,317.805176 
	C291.946686,317.460785 288.081024,315.666382 283.574921,314.070404 
M220.039536,331.378235 
	C223.853409,331.237122 227.702744,331.377106 231.474396,330.901276 
	C242.090805,329.561890 250.874603,321.935211 251.678482,312.455688 
	C252.083282,307.682159 251.540817,302.245209 249.523117,298.016571 
	C247.581451,293.947296 243.185715,291.048981 239.849472,287.616882 
	C239.733627,287.684845 240.429489,287.277161 241.124908,286.868683 
	C248.140091,282.748230 251.293823,276.467072 250.847931,268.510101 
	C250.414215,260.769745 246.018982,255.601990 239.157562,252.439255 
	C232.417282,249.332382 225.290222,248.989807 218.152161,250.359360 
	C210.708725,251.787491 203.849136,254.528946 198.967468,261.274994 
	C202.114426,264.912262 205.084808,268.345459 208.194366,271.939484 
	C212.463898,266.067291 217.427643,262.844360 224.168228,262.919159 
	C230.189240,262.985992 234.181015,265.826599 234.881027,270.546265 
	C235.643402,275.686401 232.814392,280.293365 227.331680,281.957062 
	C224.224075,282.900085 220.881790,283.069794 217.399109,283.627167 
	C217.399109,287.066376 217.399109,290.483093 217.399109,293.899506 
	C221.470734,294.575317 225.490326,294.817902 229.232529,295.965240 
	C234.573425,297.602722 237.066132,301.956207 236.674896,307.565704 
	C236.289474,313.091522 233.597595,316.028290 227.653656,317.212494 
	C219.351532,318.866486 212.229538,316.648621 206.198761,309.974182 
	C203.296066,313.710449 200.600037,317.180725 197.868027,320.697296 
	C203.779236,327.550476 210.825974,330.728455 220.039536,331.378235 
z"/>
<path fill="#C1295D" opacity="1.000000" stroke="none" 
	d="
M291.000000,209.947220 
	C241.907211,209.947205 193.314423,209.947205 145.220245,209.947205 
	C145.220245,198.397186 144.691956,187.280487 145.450226,176.252243 
	C145.812134,170.988663 150.561279,168.658615 155.910355,167.914444 
	C181.150558,164.402893 206.147842,159.677155 230.240234,151.135742 
	C238.216766,148.307800 246.002716,144.889572 253.712463,141.382187 
	C258.135986,139.369781 262.137085,139.159851 266.581360,141.254608 
	C297.379089,155.770691 329.743866,164.886261 363.508942,169.139923 
	C374.120758,170.476776 376.679718,173.320679 376.846008,183.938141 
	C376.978333,192.385971 376.872681,200.837524 376.872681,209.947235 
	C348.657440,209.947235 320.078735,209.947235 291.000000,209.947220 
M190.852036,197.464035 
	C194.767517,204.707291 201.524231,201.126801 207.534225,201.964523 
	C207.534225,198.395050 207.534225,195.040466 207.534225,190.669586 
	C204.779816,191.379181 202.569855,191.948502 200.359894,192.517822 
	C201.427399,193.658493 202.494919,194.799149 203.805801,196.199875 
	C201.456497,198.629623 198.598267,199.577805 195.773682,196.969177 
	C192.834473,194.254700 192.755310,190.646591 194.971313,187.440262 
	C197.031235,184.459732 199.768478,184.505051 202.807098,186.488907 
	C203.744522,187.100922 205.418991,186.584015 207.644470,186.584015 
	C203.483398,181.446732 199.963898,180.266144 195.921875,181.818390 
	C190.220627,184.007843 188.092697,189.896286 190.852036,197.464035 
M313.517120,185.092026 
	C314.643951,185.329529 315.792786,185.829071 316.891876,185.736633 
	C318.196228,185.626953 319.457764,185.007767 320.737854,184.609375 
	C320.600983,183.989929 320.464111,183.370483 320.327240,182.751022 
	C317.949707,182.252533 315.573456,181.357040 313.194336,181.349335 
	C309.695526,181.337997 307.113861,183.207611 306.507904,186.856674 
	C305.891083,190.570724 308.225616,192.273376 311.403595,193.234177 
	C312.674622,193.618439 314.039825,193.917374 315.122711,194.622757 
	C315.917694,195.140579 316.322693,196.257050 316.901489,197.106735 
	C316.084686,197.549942 315.215240,198.441925 314.460815,198.353439 
	C312.059326,198.071762 309.700653,197.425171 306.019501,196.641571 
	C306.718018,198.526260 306.957520,200.570099 307.617859,200.716553 
	C310.772797,201.416245 314.178497,202.297058 317.217560,201.700272 
	C318.955627,201.358963 321.092041,198.425064 321.324707,196.454819 
	C321.522034,194.783936 319.542969,192.480484 317.966492,191.094284 
	C316.700775,189.981293 314.536072,189.955444 312.876221,189.210938 
	C310.281189,188.046936 309.853973,186.621063 313.517120,185.092026 
M289.304016,201.926239 
	C290.671082,199.877243 293.245667,197.715454 293.067810,195.810745 
	C292.887573,193.881363 290.114227,192.050964 288.222137,190.484756 
	C287.267456,189.694519 285.658813,189.746857 284.519135,189.108704 
	C283.786652,188.698532 283.369568,187.725082 282.811127,187.004089 
	C283.663330,186.369415 284.468994,185.303345 285.379120,185.205093 
	C286.622894,185.070847 287.968628,185.968765 289.228790,185.873093 
	C290.400421,185.784149 291.517181,184.972580 293.290710,184.205551 
	C286.255676,180.057022 280.967010,180.727707 278.868866,185.238266 
	C277.002960,189.249573 278.493378,191.049500 285.865417,194.202911 
	C287.027771,194.700089 287.847961,195.997208 288.826355,196.924438 
	C287.392944,197.399887 285.981842,198.138718 284.518677,198.262650 
	C283.457764,198.352509 282.343719,197.414688 281.223846,197.331223 
	C280.268555,197.260010 279.271210,197.753311 278.292450,197.996902 
	C278.799164,199.015701 279.137665,200.762833 279.842102,200.925507 
	C282.689941,201.583160 285.650513,201.752762 289.304016,201.926239 
M264.341949,202.099976 
	C264.799866,201.751282 265.709198,201.245056 265.650421,201.076645 
	C263.521637,194.976868 261.494293,188.828323 259.002228,182.875214 
	C258.000427,180.482056 255.579834,180.431885 254.541718,182.928238 
	C252.023483,188.983810 249.912552,195.208771 247.637512,201.365494 
	C248.125870,201.751953 248.614212,202.138428 249.102570,202.524887 
	C250.329926,201.339157 251.767456,200.302948 252.739899,198.935883 
	C254.636032,196.270294 259.131134,196.228043 260.875763,198.945496 
	C261.614349,200.095917 262.653351,201.053452 264.341949,202.099976 
M226.015839,187.645584 
	C226.011200,186.318741 226.243820,184.930176 225.920303,183.686279 
	C225.696579,182.826096 224.705017,182.165634 224.056534,181.415924 
	C223.356354,182.111877 222.067551,182.792145 222.048523,183.506256 
	C221.886780,189.577606 221.955994,195.655136 221.955994,202.091782 
	C226.400650,202.091782 230.189774,202.172958 233.969376,202.019623 
	C234.679565,201.990814 235.351776,201.025909 236.041519,200.492981 
	C235.342438,199.793411 234.699295,198.572815 233.933929,198.490662 
	C231.506287,198.230011 229.033020,198.394257 226.015854,198.394257 
	C226.015854,194.814011 226.015854,191.705887 226.015839,187.645584 
z"/>
<path fill="#F9FAFC" opacity="1.000000" stroke="none" 
	d="
M283.867249,314.294739 
	C288.081024,315.666382 291.946686,317.460785 295.937439,317.805176 
	C301.545532,318.289185 306.302856,314.635925 307.929291,309.836090 
	C309.882599,304.071564 308.301605,297.735901 304.064667,294.349030 
	C299.900452,291.020325 293.414032,290.834900 288.637024,293.908020 
	C281.262939,298.651886 281.262939,298.651886 271.569519,297.704224 
	C273.049774,289.576721 274.499878,281.489502 276.000885,273.411713 
	C277.247406,266.703644 278.424561,259.977173 279.944366,253.330200 
	C280.242157,252.027939 281.830902,250.844193 283.091248,250.008575 
	C283.785858,249.548065 285.036072,249.925385 286.035797,249.925369 
	C296.841309,249.925323 307.646820,249.925339 318.781708,249.925339 
	C318.781708,254.637436 318.781708,259.035004 318.781708,263.995239 
	C309.748016,263.995239 300.674866,263.995239 291.467102,263.995239 
	C290.348938,269.482330 289.332397,274.470703 288.219635,279.931396 
	C289.394409,279.800110 290.655396,279.810242 291.834503,279.504486 
	C306.629211,275.667603 320.308380,283.855560 323.390900,298.434784 
	C326.653015,313.863556 317.065643,328.608826 302.140503,330.934662 
	C291.051270,332.662720 280.958435,330.917419 272.760925,322.370758 
	C269.760376,319.242432 269.182739,316.698090 272.916840,313.792267 
	C274.602509,312.480530 275.920044,310.695709 277.651459,308.864410 
	C279.687592,310.653900 281.631256,312.362152 283.867249,314.294739 
z"/>
<path fill="#F8FAFC" opacity="1.000000" stroke="none" 
	d="
M219.605438,331.326294 
	C210.825974,330.728455 203.779236,327.550476 197.868027,320.697296 
	C200.600037,317.180725 203.296066,313.710449 206.198761,309.974182 
	C212.229538,316.648621 219.351532,318.866486 227.653656,317.212494 
	C233.597595,316.028290 236.289474,313.091522 236.674896,307.565704 
	C237.066132,301.956207 234.573425,297.602722 229.232529,295.965240 
	C225.490326,294.817902 221.470734,294.575317 217.399109,293.899506 
	C217.399109,290.483093 217.399109,287.066376 217.399109,283.627167 
	C220.881790,283.069794 224.224075,282.900085 227.331680,281.957062 
	C232.814392,280.293365 235.643402,275.686401 234.881027,270.546265 
	C234.181015,265.826599 230.189240,262.985992 224.168228,262.919159 
	C217.427643,262.844360 212.463898,266.067291 208.194366,271.939484 
	C205.084808,268.345459 202.114426,264.912262 198.967468,261.274994 
	C203.849136,254.528946 210.708725,251.787491 218.152161,250.359360 
	C225.290222,248.989807 232.417282,249.332382 239.157562,252.439255 
	C246.018982,255.601990 250.414215,260.769745 250.847931,268.510101 
	C251.293823,276.467072 248.140091,282.748230 241.124908,286.868683 
	C240.429489,287.277161 239.733627,287.684845 239.849472,287.616882 
	C243.185715,291.048981 247.581451,293.947296 249.523117,298.016571 
	C251.540817,302.245209 252.083282,307.682159 251.678482,312.455688 
	C250.874603,321.935211 242.090805,329.561890 231.474396,330.901276 
	C227.702744,331.377106 223.853409,331.237122 219.605438,331.326294 
z"/>
<path fill="#F6E2E9" opacity="1.000000" stroke="none" 
	d="
M190.682129,197.126038 
	C188.092697,189.896286 190.220627,184.007843 195.921875,181.818390 
	C199.963898,180.266144 203.483398,181.446732 207.644470,186.584015 
	C205.418991,186.584015 203.744522,187.100922 202.807098,186.488907 
	C199.768478,184.505051 197.031235,184.459732 194.971313,187.440262 
	C192.755310,190.646591 192.834473,194.254700 195.773682,196.969177 
	C198.598267,199.577805 201.456497,198.629623 203.805801,196.199875 
	C202.494919,194.799149 201.427399,193.658493 200.359894,192.517822 
	C202.569855,191.948502 204.779816,191.379181 207.534225,190.669586 
	C207.534225,195.040466 207.534225,198.395050 207.534225,201.964523 
	C201.524231,201.126801 194.767517,204.707291 190.682129,197.126038 
z"/>
<path fill="#F7E6EC" opacity="1.000000" stroke="none" 
	d="
M313.128967,185.135666 
	C309.853973,186.621063 310.281189,188.046936 312.876221,189.210938 
	C314.536072,189.955444 316.700775,189.981293 317.966492,191.094284 
	C319.542969,192.480484 321.522034,194.783936 321.324707,196.454819 
	C321.092041,198.425064 318.955627,201.358963 317.217560,201.700272 
	C314.178497,202.297058 310.772797,201.416245 307.617859,200.716553 
	C306.957520,200.570099 306.718018,198.526260 306.019501,196.641571 
	C309.700653,197.425171 312.059326,198.071762 314.460815,198.353439 
	C315.215240,198.441925 316.084686,197.549942 316.901489,197.106735 
	C316.322693,196.257050 315.917694,195.140579 315.122711,194.622757 
	C314.039825,193.917374 312.674622,193.618439 311.403595,193.234177 
	C308.225616,192.273376 305.891083,190.570724 306.507904,186.856674 
	C307.113861,183.207611 309.695526,181.337997 313.194336,181.349335 
	C315.573456,181.357040 317.949707,182.252533 320.327240,182.751022 
	C320.464111,183.370483 320.600983,183.989929 320.737854,184.609375 
	C319.457764,185.007767 318.196228,185.626953 316.891876,185.736633 
	C315.792786,185.829071 314.643951,185.329529 313.128967,185.135666 
z"/>
<path fill="#F8E8ED" opacity="1.000000" stroke="none" 
	d="
M288.936737,202.014374 
	C285.650513,201.752762 282.689941,201.583160 279.842102,200.925507 
	C279.137665,200.762833 278.799164,199.015701 278.292450,197.996902 
	C279.271210,197.753311 280.268555,197.260010 281.223846,197.331223 
	C282.343719,197.414688 283.457764,198.352509 284.518677,198.262650 
	C285.981842,198.138718 287.392944,197.399887 288.826355,196.924438 
	C287.847961,195.997208 287.027771,194.700089 285.865417,194.202911 
	C278.493378,191.049500 277.002960,189.249573 278.868866,185.238266 
	C280.967010,180.727707 286.255676,180.057022 293.290710,184.205551 
	C291.517181,184.972580 290.400421,185.784149 289.228790,185.873093 
	C287.968628,185.968765 286.622894,185.070847 285.379120,185.205093 
	C284.468994,185.303345 283.663330,186.369415 282.811127,187.004089 
	C283.369568,187.725082 283.786652,188.698532 284.519135,189.108704 
	C285.658813,189.746857 287.267456,189.694519 288.222137,190.484756 
	C290.114227,192.050964 292.887573,193.881363 293.067810,195.810745 
	C293.245667,197.715454 290.671082,199.877243 288.936737,202.014374 
z"/>
<path fill="#F6E2E9" opacity="1.000000" stroke="none" 
	d="
M263.948883,202.099319 
	C262.653351,201.053452 261.614349,200.095917 260.875763,198.945496 
	C259.131134,196.228043 254.636032,196.270294 252.739899,198.935883 
	C251.767456,200.302948 250.329926,201.339157 249.102570,202.524887 
	C248.614212,202.138428 248.125870,201.751953 247.637512,201.365494 
	C249.912552,195.208771 252.023483,188.983810 254.541718,182.928238 
	C255.579834,180.431885 258.000427,180.482056 259.002228,182.875214 
	C261.494293,188.828323 263.521637,194.976868 265.650421,201.076645 
	C265.709198,201.245056 264.799866,201.751282 263.948883,202.099319 
z"/>
<path fill="#F8EAEE" opacity="1.000000" stroke="none" 
	d="
M226.015839,188.121674 
	C226.015854,191.705887 226.015854,194.814011 226.015854,198.394257 
	C229.033020,198.394257 231.506287,198.230011 233.933929,198.490662 
	C234.699295,198.572815 235.342438,199.793411 236.041519,200.492981 
	C235.351776,201.025909 234.679565,201.990814 233.969376,202.019623 
	C230.189774,202.172958 226.400650,202.091782 221.955994,202.091782 
	C221.955994,195.655136 221.886780,189.577606 222.048523,183.506256 
	C222.067551,182.792145 223.356354,182.111877 224.056549,181.415924 
	C224.705017,182.165634 225.696579,182.826096 225.920303,183.686279 
	C226.243820,184.930176 226.011200,186.318741 226.015839,188.121674 
z"/>
</svg>